<svg width="46" height="35" viewBox="0 0 46 35" fill="none" xmlns="http://www.w3.org/2000/svg">
<path d="M21.6489 18.3904V26.1785L24.4439 27.3091L24.2554 27.9999H16.4673L16.2789 27.3091L18.0061 26.5868C18.383 26.4402 18.6342 26.2832 18.7598 26.1157C18.9063 25.9482 18.9796 25.7075 18.9796 25.3934L18.9796 9.37756L16.2789 8.27843L16.4673 7.58755L31.07 7.58755V11.8899L30.1279 12.1097L28.6206 9.34615L22.4968 9.22054C21.9316 9.22054 21.6489 9.54504 21.6489 10.1941L21.6489 16.726L26.6735 16.726L27.6784 14.5592L28.3693 14.7476L28.3693 20.5887L27.6784 20.7771L27.0818 19.3639C26.9352 18.9871 26.7782 18.7359 26.6107 18.6102C26.4432 18.4637 26.2025 18.3904 25.8884 18.3904L21.6489 18.3904Z" fill="#2E2832"/>
<path d="M29.2838 25.3934L29.2838 9.37756L26.5831 8.27843L26.7715 7.58755C30.854 7.42006 33.5338 7.33632 34.8109 7.33632C40.0239 7.33632 42.6304 9.10539 42.6304 12.6435C42.6304 14.7581 41.6778 16.3282 39.7727 17.3541C42.3059 18.2334 43.5725 19.9815 43.5725 22.5985C43.5725 23.5406 43.3841 24.3676 43.0072 25.0794C42.6513 25.7703 42.1907 26.3146 41.6255 26.7124C41.0602 27.1102 40.3589 27.4347 39.5214 27.6859C38.1397 28.0627 36.716 28.2512 35.2505 28.2512C33.785 28.2512 30.9587 28.1674 26.7715 27.9999L26.5831 27.3091L28.3103 26.5868C28.6872 26.4402 28.9384 26.2832 29.064 26.1157C29.2105 25.9482 29.2838 25.7075 29.2838 25.3934ZM35.8472 18.4218L32.801 18.4218C32.2358 18.4218 31.9531 18.6835 31.9531 19.2069V26.3355C32.4975 26.4193 33.5757 26.4612 35.1877 26.4612C36.7998 26.4612 38.2129 26.2727 39.4272 25.8959C40.2437 25.2678 40.652 24.242 40.652 22.8183C40.652 19.8873 39.0504 18.4218 35.8472 18.4218ZM35.3761 9.06352H32.801C32.2358 9.06352 31.9531 9.32522 31.9531 9.84861L31.9531 16.6946C32.4975 16.7784 33.4814 16.8202 34.9051 16.8202C36.3287 16.8202 37.5535 16.6109 38.5793 16.1922C39.333 15.6269 39.7098 14.7057 39.7098 13.4286C39.7098 12.1306 39.3749 11.0838 38.7049 10.2883C38.0559 9.47177 36.9463 9.06352 35.3761 9.06352Z" fill="#2E2832"/>
<path d="M19.4134 9.47233L19.4134 27L17.1876 27.2473L5.74982 10.9871L5.74982 25.238L8.40834 26.3199L8.22286 27H1.23652L1.05104 26.3199L2.75126 25.6089C3.12221 25.4647 3.36952 25.3101 3.49317 25.1452C3.63743 24.9804 3.70956 24.7434 3.70956 24.4342L3.70956 8.66859L1.05104 7.58664L1.23652 6.90655L6.39899 6.90655L17.3422 22.4867V22.5485L17.3731 22.4867L17.3731 8.66859L14.7146 7.58664L14.9001 6.90655L21.8864 6.90655L22.0719 7.58664L20.3717 8.29764C20.0007 8.4419 19.7431 8.59646 19.5988 8.76133C19.4752 8.9262 19.4134 9.1632 19.4134 9.47233Z" fill="#2E2832"/>
</svg>
